<?xml version="1.0" encoding="iso-8859-1"?>
<!-- Generator: Adobe Illustrator 18.1.1, SVG Export Plug-In . SVG Version: 6.00 Build 0)  -->
<svg version="1.1" id="Capa_1" xmlns="http://www.w3.org/2000/svg" xmlns:xlink="http://www.w3.org/1999/xlink" x="0px" y="0px"
	 viewBox="0 0 17.026 17.026" style="enable-background:new 0 0 17.026 17.026;" xml:space="preserve">
<g>
	<g>
		<path style="fill:#030104;" d="M6.719,0h-1.05C5.114,0,4.664,0.45,4.664,1.005v12.622c0,0.548,0.439,0.993,0.985,1.004
			c-0.172,0.875-0.945,1.538-1.869,1.538c-1.051,0-1.907-0.857-1.907-1.907V9.45c0-0.238-0.192-0.43-0.429-0.43
			s-0.43,0.191-0.43,0.43v4.812c0,1.524,1.241,2.764,2.766,2.764c1.397,0,2.554-1.044,2.737-2.393H6.72
			c0.555,0,1.006-0.451,1.006-1.006V1.006C7.725,0.451,7.274,0,6.719,0z"/>
		<path style="fill:#030104;" d="M15.159,1.595h-7.01V13.89h7.01c0.472,0,0.853-0.381,0.853-0.852V2.447
			C16.012,1.976,15.631,1.595,15.159,1.595z M10.812,12.631h-1.49v-1.489h1.49V12.631z M10.812,10.556h-1.49v-1.49h1.49V10.556z
			 M10.823,8.495h-1.49v-1.49h1.49V8.495z M12.942,12.631h-1.491v-1.489h1.491V12.631z M12.942,10.556h-1.491v-1.49h1.491V10.556z
			 M12.952,8.495h-1.491v-1.49h1.491V8.495z M15.071,12.631h-1.49v-1.489h1.49V12.631z M15.071,10.556h-1.49v-1.49h1.49V10.556z
			 M15.082,8.495h-1.491v-1.49h1.491V8.495z M15.088,4.085H9.073V2.328h6.015V4.085z"/>
		<path style="fill:#030104;" d="M3.696,13.89h0.521V1.595H3.696c-0.47,0-0.852,0.382-0.852,0.852v10.592
			C2.844,13.509,3.226,13.89,3.696,13.89z"/>
	</g>
</g>
<g>
</g>
<g>
</g>
<g>
</g>
<g>
</g>
<g>
</g>
<g>
</g>
<g>
</g>
<g>
</g>
<g>
</g>
<g>
</g>
<g>
</g>
<g>
</g>
<g>
</g>
<g>
</g>
<g>
</g>
</svg>
