<svg  version="1.1" xmlns="http://www.w3.org/2000/svg"  width="150" height="150" viewBox="0, 0, 400,399.609375" >
        <path id="path0" d="M192.383 93.950 C 191.577 94.044,190.303 94.215,189.551 94.330 C 188.799 94.445,187.744 94.581,187.207 94.632 C 185.204 94.822,179.611 96.085,176.660 97.013 C 173.971 97.859,169.726 99.416,168.607 99.967 C 168.417 100.061,166.987 100.754,165.430 101.509 C 163.074 102.649,159.860 104.419,158.594 105.271 C 156.157 106.913,153.434 108.823,152.823 109.321 C 147.063 114.014,143.799 117.167,140.822 120.913 C 139.932 122.033,139.143 122.993,139.068 123.047 C 138.851 123.204,136.324 126.873,134.760 129.303 C 133.243 131.659,130.295 137.307,129.396 139.578 C 129.105 140.315,128.747 141.182,128.601 141.504 C 127.444 144.059,125.055 152.584,124.606 155.762 C 124.514 156.406,124.260 158.164,124.039 159.668 C 123.642 162.381,123.639 162.898,123.636 227.174 L 123.633 291.947 124.072 292.064 C 124.314 292.129,158.021 292.183,198.977 292.185 L 273.442 292.188 273.391 227.100 L 273.340 162.012 272.895 159.180 C 271.308 149.080,269.446 143.116,265.306 134.863 C 264.131 132.522,260.881 127.031,260.103 126.074 C 260.016 125.967,259.406 125.132,258.747 124.219 C 258.088 123.306,257.488 122.515,257.413 122.461 C 257.339 122.407,256.726 121.667,256.051 120.815 C 253.931 118.142,250.047 114.229,246.973 111.672 C 245.684 110.599,244.410 109.539,244.143 109.315 C 243.877 109.090,243.086 108.511,242.386 108.026 C 241.686 107.542,241.069 107.092,241.016 107.026 C 240.875 106.855,236.924 104.398,234.965 103.264 C 232.036 101.570,228.812 100.115,222.945 97.841 C 222.406 97.632,221.824 97.461,221.651 97.461 C 221.478 97.461,220.996 97.317,220.580 97.142 C 215.192 94.870,199.606 93.106,192.383 93.950 M205.765 99.326 C 207.433 99.486,209.388 99.740,210.111 99.891 C 210.834 100.042,211.821 100.221,212.305 100.290 C 212.788 100.358,213.755 100.580,214.453 100.783 C 215.151 100.987,215.946 101.192,216.220 101.240 C 218.700 101.674,225.077 104.038,229.199 106.051 C 233.775 108.286,241.158 113.141,243.652 115.555 C 243.975 115.867,245.014 116.819,245.963 117.670 C 248.044 119.537,252.230 124.117,253.822 126.270 C 254.458 127.129,255.034 127.876,255.102 127.930 C 255.319 128.100,258.520 133.062,259.134 134.180 C 260.675 136.984,262.680 141.175,263.431 143.164 C 263.654 143.755,264.053 144.810,264.317 145.508 C 265.820 149.484,267.075 154.813,267.813 160.352 C 268.271 163.789,268.603 187.500,268.193 187.500 C 268.086 187.500,267.616 187.214,267.149 186.865 C 266.682 186.516,265.774 185.879,265.132 185.449 C 264.490 185.020,263.877 184.594,263.770 184.503 C 263.662 184.413,261.729 183.070,259.473 181.519 C 257.217 179.967,255.239 178.589,255.078 178.456 C 254.917 178.322,254.038 177.713,253.125 177.102 C 252.212 176.491,250.894 175.592,250.195 175.103 C 249.497 174.615,248.311 173.791,247.559 173.274 C 244.329 171.051,239.926 167.984,239.746 167.832 C 239.639 167.742,238.903 167.230,238.112 166.695 C 237.321 166.160,236.163 165.371,235.541 164.941 C 229.704 160.915,228.209 159.874,228.125 159.775 C 228.071 159.713,227.249 159.135,226.298 158.493 C 224.506 157.282,223.126 156.333,221.164 154.962 C 220.534 154.522,219.136 153.556,218.056 152.814 C 216.976 152.072,215.274 150.894,214.274 150.195 C 213.274 149.497,211.948 148.574,211.327 148.145 C 210.706 147.715,209.684 147.005,209.054 146.567 C 205.857 144.343,197.612 138.635,196.218 137.681 C 195.344 137.082,194.006 136.160,193.244 135.630 C 192.482 135.101,190.460 133.707,188.751 132.533 C 187.043 131.358,185.601 130.347,185.547 130.286 C 185.493 130.225,184.966 129.852,184.375 129.457 C 183.417 128.817,181.984 127.831,178.516 125.421 C 177.925 125.011,175.684 123.458,173.535 121.969 C 171.387 120.481,169.146 118.926,168.555 118.514 C 167.964 118.102,166.909 117.374,166.211 116.896 C 165.513 116.418,164.106 115.447,163.086 114.737 C 162.065 114.028,160.637 113.045,159.912 112.554 C 159.187 112.063,158.597 111.608,158.600 111.544 C 158.606 111.420,161.040 109.725,161.407 109.589 C 161.525 109.545,162.148 109.184,162.793 108.786 C 165.508 107.109,171.510 104.102,172.142 104.102 C 172.204 104.102,172.718 103.890,173.285 103.632 C 174.357 103.145,179.633 101.422,180.582 101.250 C 180.880 101.196,181.746 100.982,182.505 100.775 C 183.265 100.568,184.238 100.346,184.668 100.281 C 185.098 100.216,186.036 100.041,186.753 99.892 C 187.852 99.663,191.566 99.268,195.605 98.948 C 197.229 98.820,202.544 99.017,205.765 99.326 M155.112 115.680 C 155.577 116.032,156.353 116.587,156.836 116.913 C 157.319 117.240,159.341 118.638,161.328 120.021 C 163.315 121.404,165.469 122.888,166.113 123.320 C 166.758 123.751,167.329 124.157,167.383 124.222 C 167.437 124.287,168.315 124.903,169.336 125.591 C 171.853 127.288,177.032 130.868,181.133 133.746 C 181.788 134.206,183.071 135.080,183.984 135.688 C 184.897 136.296,185.688 136.849,185.742 136.918 C 185.796 136.987,186.367 137.396,187.012 137.827 C 187.656 138.258,189.055 139.218,190.121 139.960 C 191.186 140.702,192.812 141.828,193.734 142.462 C 195.641 143.775,197.472 145.045,199.143 146.214 C 199.776 146.657,201.180 147.624,202.264 148.363 C 203.348 149.102,205.238 150.410,206.463 151.268 C 207.689 152.127,209.043 153.069,209.473 153.360 C 209.902 153.652,210.848 154.312,211.574 154.826 C 212.300 155.341,214.190 156.649,215.773 157.733 C 217.357 158.817,219.443 160.258,220.410 160.937 C 221.377 161.615,223.135 162.831,224.316 163.639 C 225.498 164.446,226.904 165.418,227.441 165.798 C 227.979 166.177,228.866 166.799,229.413 167.180 C 229.961 167.560,231.279 168.478,232.343 169.220 C 233.407 169.962,234.893 170.990,235.645 171.504 C 236.396 172.018,237.891 173.053,238.965 173.803 C 240.039 174.552,241.929 175.861,243.164 176.711 C 245.753 178.492,249.527 181.107,251.367 182.395 C 253.720 184.042,254.779 184.778,256.152 185.718 C 256.904 186.233,259.146 187.782,261.133 189.160 C 263.120 190.539,265.317 192.061,266.016 192.544 C 266.714 193.027,267.527 193.600,267.822 193.818 L 268.359 194.214 268.359 240.564 L 268.359 286.914 254.636 286.914 L 240.913 286.914 239.152 285.205 C 236.146 282.288,234.819 280.554,233.332 277.602 L 232.641 276.228 234.240 276.106 C 250.157 274.889,263.907 257.905,260.833 243.258 L 260.489 241.617 259.395 241.367 C 257.163 240.856,250.990 241.039,248.730 241.683 C 240.484 244.031,234.410 248.690,229.792 256.208 L 229.038 257.435 227.165 255.574 C 224.140 252.567,219.732 250.027,216.602 249.487 C 216.333 249.440,215.636 249.317,215.052 249.213 C 213.578 248.950,210.704 248.989,209.132 249.293 C 208.408 249.433,207.778 249.510,207.732 249.464 C 207.319 249.051,206.795 252.132,206.823 254.811 C 206.918 264.058,214.765 273.509,224.075 275.588 C 225.067 275.809,226.129 276.053,226.435 276.130 C 226.907 276.249,227.087 276.505,227.629 277.832 C 228.839 280.792,230.221 283.156,232.165 285.592 L 233.220 286.914 221.225 286.914 L 209.231 286.914 208.695 285.693 C 208.400 285.022,207.562 283.066,206.832 281.348 C 204.591 276.072,204.281 275.346,203.579 273.730 C 203.205 272.871,202.774 271.904,202.621 271.582 C 202.350 271.012,200.878 267.570,198.697 262.402 C 198.108 261.006,197.423 259.424,197.175 258.887 C 196.927 258.350,196.230 256.724,195.625 255.273 C 195.020 253.823,194.444 252.493,194.345 252.318 C 194.247 252.143,193.755 251.000,193.253 249.779 C 192.751 248.558,192.285 247.471,192.217 247.363 C 192.149 247.256,191.994 246.904,191.874 246.582 C 191.611 245.880,189.170 240.187,188.775 239.355 C 188.467 238.708,186.491 234.112,184.829 230.176 C 184.239 228.779,183.553 227.197,183.305 226.660 C 183.056 226.123,182.616 225.112,182.327 224.414 C 181.885 223.349,180.642 220.462,179.595 218.066 C 179.454 217.744,178.844 216.294,178.240 214.844 C 177.636 213.394,177.068 212.075,176.978 211.913 C 176.888 211.751,176.353 210.521,175.790 209.179 C 175.227 207.836,174.564 206.299,174.317 205.762 C 174.070 205.225,173.410 203.687,172.852 202.344 C 172.293 201.001,171.633 199.463,171.386 198.926 C 171.016 198.123,169.648 194.949,166.498 187.589 C 166.316 187.164,166.049 186.553,165.904 186.230 C 165.758 185.908,164.623 183.271,163.381 180.371 C 162.139 177.471,161.041 174.922,160.941 174.707 C 160.841 174.492,160.049 172.646,159.181 170.605 C 158.313 168.564,157.483 166.631,157.335 166.309 C 157.187 165.986,156.804 165.107,156.482 164.355 C 153.400 157.152,152.076 154.079,151.770 153.418 C 151.571 152.988,150.822 151.230,150.106 149.512 C 149.390 147.793,148.643 146.035,148.445 145.605 C 148.248 145.176,147.806 144.165,147.463 143.359 C 147.120 142.554,146.678 141.543,146.480 141.113 C 146.282 140.684,145.623 139.146,145.016 137.695 C 144.408 136.245,143.735 134.663,143.520 134.180 C 141.626 129.924,141.208 128.851,141.363 128.640 C 144.418 124.491,145.429 123.320,149.351 119.385 C 154.078 114.642,153.897 114.759,155.112 115.680 M140.169 139.941 C 140.658 141.123,141.303 142.617,141.602 143.262 C 141.901 143.906,142.381 145.005,142.669 145.703 C 143.110 146.772,144.119 149.127,145.220 151.660 C 145.874 153.163,147.610 157.193,148.671 159.668 C 149.315 161.172,150.001 162.754,150.195 163.184 C 150.389 163.613,150.898 164.800,151.326 165.820 C 152.525 168.681,155.250 175.029,155.560 175.684 C 155.980 176.572,158.421 182.243,158.671 182.910 C 158.791 183.232,158.945 183.584,159.013 183.691 C 159.080 183.799,159.461 184.678,159.859 185.645 C 160.257 186.611,161.014 188.391,161.541 189.600 C 162.068 190.808,162.946 192.830,163.491 194.092 C 164.036 195.354,164.600 196.650,164.744 196.973 C 164.888 197.295,165.332 198.350,165.731 199.316 C 166.129 200.283,166.697 201.602,166.992 202.246 C 167.287 202.891,167.856 204.209,168.255 205.176 C 168.655 206.143,169.182 207.373,169.426 207.910 C 169.670 208.447,170.242 209.766,170.697 210.840 C 172.019 213.961,172.673 215.485,172.958 216.113 C 173.371 217.024,176.329 223.887,178.218 228.320 C 179.157 230.522,180.364 233.335,180.901 234.570 C 182.269 237.714,182.162 237.466,184.474 242.871 C 185.623 245.557,186.728 248.105,186.929 248.535 C 187.131 248.965,188.360 251.815,189.660 254.870 C 190.960 257.924,192.188 260.781,192.388 261.217 C 192.588 261.654,193.249 263.198,193.856 264.648 C 194.463 266.099,195.120 267.637,195.314 268.066 C 195.694 268.906,196.020 269.652,196.680 271.191 C 196.910 271.728,197.213 272.431,197.353 272.754 C 198.474 275.330,199.463 277.642,199.903 278.711 C 200.190 279.409,200.586 280.332,200.782 280.762 C 201.496 282.321,203.080 286.046,203.212 286.475 L 203.347 286.914 165.927 286.914 L 128.507 286.914 128.567 225.537 L 128.627 164.160 129.057 160.856 C 129.792 155.208,131.395 148.429,132.779 145.117 C 132.891 144.849,133.246 143.921,133.569 143.057 C 134.168 141.448,136.268 136.975,137.214 135.291 L 137.742 134.352 138.510 136.072 C 138.933 137.019,139.679 138.760,140.169 139.941 M255.804 248.682 C 255.421 256.695,248.456 266.047,240.625 269.060 C 240.142 269.246,239.658 269.462,239.551 269.541 C 238.686 270.174,232.503 271.142,231.582 270.789 C 230.928 270.538,231.411 266.146,232.417 263.184 C 235.012 255.548,243.440 247.844,250.391 246.754 C 250.767 246.695,251.382 246.575,251.758 246.487 C 252.134 246.400,253.224 246.319,254.180 246.309 L 255.919 246.289 255.804 248.682 M215.723 254.800 C 219.763 255.875,223.543 258.661,225.858 262.272 L 226.765 263.687 226.468 264.830 C 226.305 265.460,226.162 266.533,226.151 267.216 C 226.139 267.898,226.073 268.959,226.004 269.573 L 225.879 270.688 224.555 270.224 C 223.826 269.969,223.189 269.754,223.137 269.746 C 222.894 269.709,220.966 268.663,219.995 268.043 C 218.508 267.091,216.180 264.841,215.303 263.507 C 214.903 262.899,214.517 262.358,214.443 262.305 C 213.759 261.803,212.347 257.697,212.189 255.750 L 212.056 254.102 213.010 254.217 C 213.535 254.281,214.756 254.543,215.723 254.800 M350.731 278.613 C 350.776 279.688,350.842 280.654,350.879 280.762 C 351.015 281.160,350.932 277.618,350.794 277.148 C 350.715 276.880,350.687 277.539,350.731 278.613 " stroke="none" fill="#050505" fill-rule="evenodd"></path>
        <path id="path1" d="M195.605 98.948 C 191.566 99.268,187.852 99.663,186.753 99.892 C 186.036 100.041,185.098 100.216,184.668 100.281 C 184.238 100.346,183.265 100.568,182.505 100.775 C 181.746 100.982,180.880 101.196,180.582 101.250 C 179.633 101.422,174.357 103.145,173.285 103.632 C 172.718 103.890,172.204 104.102,172.142 104.102 C 171.510 104.102,165.508 107.109,162.793 108.786 C 162.148 109.184,161.525 109.545,161.407 109.589 C 161.040 109.725,158.606 111.420,158.600 111.544 C 158.597 111.608,159.187 112.063,159.912 112.554 C 160.637 113.045,162.065 114.028,163.086 114.737 C 164.106 115.447,165.513 116.418,166.211 116.896 C 166.909 117.374,167.964 118.102,168.555 118.514 C 169.146 118.926,171.387 120.481,173.535 121.969 C 175.684 123.458,177.925 125.011,178.516 125.421 C 181.984 127.831,183.417 128.817,184.375 129.457 C 184.966 129.852,185.493 130.225,185.547 130.286 C 185.601 130.347,187.043 131.358,188.751 132.533 C 190.460 133.707,192.482 135.101,193.244 135.630 C 194.006 136.160,195.344 137.082,196.218 137.681 C 197.612 138.635,205.857 144.343,209.054 146.567 C 209.684 147.005,210.706 147.715,211.327 148.145 C 211.948 148.574,213.274 149.497,214.274 150.195 C 215.274 150.894,216.976 152.072,218.056 152.814 C 219.136 153.556,220.534 154.522,221.164 154.962 C 223.126 156.333,224.506 157.282,226.298 158.493 C 227.249 159.135,228.071 159.713,228.125 159.775 C 228.209 159.874,229.704 160.915,235.541 164.941 C 236.163 165.371,237.321 166.160,238.112 166.695 C 238.903 167.230,239.639 167.742,239.746 167.832 C 239.926 167.984,244.329 171.051,247.559 173.274 C 248.311 173.791,249.497 174.615,250.195 175.103 C 250.894 175.592,252.212 176.491,253.125 177.102 C 254.038 177.713,254.917 178.322,255.078 178.456 C 255.239 178.589,257.217 179.967,259.473 181.519 C 261.729 183.070,263.662 184.413,263.770 184.503 C 263.877 184.594,264.490 185.020,265.132 185.449 C 265.774 185.879,266.682 186.516,267.149 186.865 C 267.616 187.214,268.086 187.500,268.193 187.500 C 268.603 187.500,268.271 163.789,267.813 160.352 C 267.075 154.813,265.820 149.484,264.317 145.508 C 264.053 144.810,263.654 143.755,263.431 143.164 C 261.826 138.916,256.363 128.922,255.102 127.930 C 255.034 127.876,254.458 127.129,253.822 126.270 C 252.230 124.117,248.044 119.537,245.963 117.670 C 245.014 116.819,243.975 115.867,243.652 115.555 C 241.158 113.141,233.775 108.286,229.199 106.051 C 225.077 104.038,218.700 101.674,216.220 101.240 C 215.946 101.192,215.151 100.987,214.453 100.783 C 213.755 100.580,212.788 100.358,212.305 100.290 C 211.821 100.221,210.834 100.042,210.111 99.891 C 207.289 99.301,198.424 98.725,195.605 98.948 M149.351 119.385 C 145.429 123.320,144.418 124.491,141.363 128.640 C 141.208 128.851,141.626 129.924,143.520 134.180 C 143.735 134.663,144.408 136.245,145.016 137.695 C 145.623 139.146,146.282 140.684,146.480 141.113 C 146.678 141.543,147.120 142.554,147.463 143.359 C 147.806 144.165,148.248 145.176,148.445 145.605 C 148.643 146.035,149.390 147.793,150.106 149.512 C 150.822 151.230,151.571 152.988,151.770 153.418 C 152.076 154.079,153.400 157.152,156.482 164.355 C 156.804 165.107,157.187 165.986,157.335 166.309 C 157.483 166.631,158.313 168.564,159.181 170.605 C 160.049 172.646,160.841 174.492,160.941 174.707 C 161.041 174.922,162.139 177.471,163.381 180.371 C 164.623 183.271,165.758 185.908,165.904 186.230 C 166.049 186.553,166.316 187.164,166.498 187.589 C 169.648 194.949,171.016 198.123,171.386 198.926 C 171.633 199.463,172.293 201.001,172.852 202.344 C 173.410 203.687,174.070 205.225,174.317 205.762 C 174.564 206.299,175.227 207.836,175.790 209.179 C 176.353 210.521,176.888 211.751,176.978 211.913 C 177.068 212.075,177.636 213.394,178.240 214.844 C 178.844 216.294,179.454 217.744,179.595 218.066 C 180.642 220.462,181.885 223.349,182.327 224.414 C 182.616 225.112,183.056 226.123,183.305 226.660 C 183.553 227.197,184.239 228.779,184.829 230.176 C 186.491 234.112,188.467 238.708,188.775 239.355 C 189.170 240.187,191.611 245.880,191.874 246.582 C 191.994 246.904,192.149 247.256,192.217 247.363 C 192.285 247.471,192.751 248.558,193.253 249.779 C 193.755 251.000,194.247 252.143,194.345 252.318 C 194.444 252.493,195.020 253.823,195.625 255.273 C 196.230 256.724,196.927 258.350,197.175 258.887 C 197.423 259.424,198.108 261.006,198.697 262.402 C 200.878 267.570,202.350 271.012,202.621 271.582 C 202.774 271.904,203.205 272.871,203.579 273.730 C 204.281 275.346,204.591 276.072,206.832 281.348 C 207.562 283.066,208.400 285.022,208.695 285.693 L 209.231 286.914 221.225 286.914 L 233.220 286.914 232.165 285.592 C 230.221 283.156,228.839 280.792,227.629 277.832 C 227.087 276.505,226.907 276.249,226.435 276.130 C 226.129 276.053,225.067 275.809,224.075 275.588 C 214.765 273.509,206.918 264.058,206.823 254.811 C 206.795 252.132,207.319 249.051,207.732 249.464 C 207.778 249.510,208.408 249.433,209.132 249.293 C 210.704 248.989,213.578 248.950,215.052 249.213 C 215.636 249.317,216.333 249.440,216.602 249.487 C 219.732 250.027,224.140 252.567,227.165 255.574 L 229.038 257.435 229.792 256.208 C 234.410 248.690,240.484 244.031,248.730 241.683 C 250.990 241.039,257.163 240.856,259.395 241.367 L 260.489 241.617 260.833 243.258 C 263.907 257.905,250.157 274.889,234.240 276.106 L 232.641 276.228 233.332 277.602 C 234.819 280.554,236.146 282.288,239.152 285.205 L 240.913 286.914 254.636 286.914 L 268.359 286.914 268.359 240.564 L 268.359 194.214 267.822 193.818 C 267.527 193.600,266.714 193.027,266.016 192.544 C 265.317 192.061,263.120 190.539,261.133 189.160 C 259.146 187.782,256.904 186.233,256.152 185.718 C 254.779 184.778,253.720 184.042,251.367 182.395 C 249.527 181.107,245.753 178.492,243.164 176.711 C 241.929 175.861,240.039 174.552,238.965 173.803 C 237.891 173.053,236.396 172.018,235.645 171.504 C 234.893 170.990,233.407 169.962,232.343 169.220 C 231.279 168.478,229.961 167.560,229.413 167.180 C 228.866 166.799,227.979 166.177,227.441 165.798 C 226.904 165.418,225.498 164.446,224.316 163.639 C 223.135 162.831,221.377 161.615,220.410 160.937 C 219.443 160.258,217.357 158.817,215.773 157.733 C 214.190 156.649,212.300 155.341,211.574 154.826 C 210.848 154.312,209.902 153.652,209.473 153.360 C 209.043 153.069,207.689 152.127,206.463 151.268 C 205.238 150.410,203.348 149.102,202.264 148.363 C 201.180 147.624,199.776 146.657,199.143 146.214 C 197.472 145.045,195.641 143.775,193.734 142.462 C 192.812 141.828,191.186 140.702,190.121 139.960 C 189.055 139.218,187.656 138.258,187.012 137.827 C 186.367 137.396,185.796 136.987,185.742 136.918 C 185.688 136.849,184.897 136.296,183.984 135.688 C 183.071 135.080,181.788 134.206,181.133 133.746 C 177.032 130.868,171.853 127.288,169.336 125.591 C 168.315 124.903,167.437 124.287,167.383 124.222 C 167.329 124.157,166.758 123.751,166.113 123.320 C 165.469 122.888,163.315 121.404,161.328 120.021 C 159.341 118.638,157.319 117.240,156.836 116.913 C 156.353 116.587,155.577 116.032,155.112 115.680 C 153.897 114.759,154.078 114.642,149.351 119.385 M137.214 135.291 C 136.268 136.975,134.168 141.448,133.569 143.057 C 133.246 143.921,132.891 144.849,132.779 145.117 C 131.395 148.429,129.792 155.208,129.057 160.856 L 128.627 164.160 128.567 225.537 L 128.507 286.914 165.927 286.914 L 203.347 286.914 203.212 286.475 C 203.080 286.046,201.496 282.321,200.782 280.762 C 200.586 280.332,200.190 279.409,199.903 278.711 C 199.463 277.642,198.474 275.330,197.353 272.754 C 197.213 272.431,196.910 271.728,196.680 271.191 C 196.020 269.652,195.694 268.906,195.314 268.066 C 195.120 267.637,194.463 266.099,193.856 264.648 C 193.249 263.198,192.588 261.654,192.388 261.217 C 192.188 260.781,190.960 257.924,189.660 254.870 C 188.360 251.815,187.131 248.965,186.929 248.535 C 186.728 248.105,185.623 245.557,184.474 242.871 C 182.162 237.466,182.269 237.714,180.901 234.570 C 180.364 233.335,179.157 230.522,178.218 228.320 C 176.329 223.887,173.371 217.024,172.958 216.113 C 172.673 215.485,172.019 213.961,170.697 210.840 C 170.242 209.766,169.670 208.447,169.426 207.910 C 169.182 207.373,168.655 206.143,168.255 205.176 C 167.856 204.209,167.287 202.891,166.992 202.246 C 166.697 201.602,166.129 200.283,165.731 199.316 C 165.332 198.350,164.888 197.295,164.744 196.973 C 164.600 196.650,164.036 195.354,163.491 194.092 C 162.946 192.830,162.068 190.808,161.541 189.600 C 161.014 188.391,160.257 186.611,159.859 185.645 C 159.461 184.678,159.080 183.799,159.013 183.691 C 158.945 183.584,158.791 183.232,158.671 182.910 C 158.421 182.243,155.980 176.572,155.560 175.684 C 155.250 175.029,152.525 168.681,151.326 165.820 C 150.898 164.800,150.389 163.613,150.195 163.184 C 150.001 162.754,149.315 161.172,148.671 159.668 C 147.610 157.193,145.874 153.163,145.220 151.660 C 144.119 149.127,143.110 146.772,142.669 145.703 C 142.381 145.005,141.901 143.906,141.602 143.262 C 141.303 142.617,140.658 141.123,140.169 139.941 C 139.679 138.760,138.933 137.019,138.510 136.072 L 137.742 134.352 137.214 135.291 M251.758 246.487 C 251.382 246.575,250.767 246.695,250.391 246.754 C 243.440 247.844,235.012 255.548,232.417 263.184 C 231.411 266.146,230.928 270.538,231.582 270.789 C 232.503 271.142,238.686 270.174,239.551 269.541 C 239.658 269.462,240.142 269.246,240.625 269.060 C 248.456 266.047,255.421 256.695,255.804 248.682 L 255.919 246.289 254.180 246.309 C 253.224 246.319,252.134 246.400,251.758 246.487 M212.189 255.750 C 212.347 257.697,213.759 261.803,214.443 262.305 C 214.517 262.358,214.903 262.899,215.303 263.507 C 216.180 264.841,218.508 267.091,219.995 268.043 C 220.966 268.663,222.894 269.709,223.137 269.746 C 223.189 269.754,223.826 269.969,224.555 270.224 L 225.879 270.688 226.004 269.573 C 226.073 268.959,226.139 267.898,226.151 267.216 C 226.162 266.533,226.305 265.460,226.468 264.830 L 226.765 263.687 225.858 262.272 C 223.059 257.905,218.176 254.844,213.010 254.217 L 212.056 254.102 212.189 255.750 M345.557 272.791 C 345.745 272.840,346.052 272.840,346.240 272.791 C 346.428 272.742,346.274 272.702,345.898 272.702 C 345.522 272.702,345.369 272.742,345.557 272.791 M350.031 275.293 C 350.030 275.400,350.148 275.796,350.293 276.172 C 350.438 276.548,350.559 276.724,350.562 276.563 C 350.566 276.401,350.448 276.006,350.300 275.684 C 350.152 275.361,350.031 275.186,350.031 275.293 M341.429 278.727 C 341.442 279.524,341.517 280.439,341.595 280.762 C 341.673 281.084,341.695 280.469,341.643 279.395 C 341.531 277.084,341.396 276.663,341.429 278.727 M345.130 285.180 C 345.751 285.353,347.078 285.360,347.502 285.191 C 347.685 285.118,347.120 285.056,346.245 285.053 C 345.359 285.050,344.866 285.106,345.130 285.180 " stroke="none" fill="#fbfbfb" fill-rule="evenodd"></path>
</svg>