<?xml version="1.0" standalone="no"?>
<!DOCTYPE svg PUBLIC "-//W3C//DTD SVG 20010904//EN"
 "http://www.w3.org/TR/2001/REC-SVG-20010904/DTD/svg10.dtd">
<svg version="1.0" xmlns="http://www.w3.org/2000/svg"
 width="1590.000000pt" height="1590.000000pt" viewBox="0 0 1590.000000 1590.000000"
 preserveAspectRatio="xMidYMid meet">
<metadata>
Created by potrace 1.14, written by Peter Selinger 2001-2017
</metadata>
<g transform="translate(0.000000,1590.000000) scale(0.100000,-0.100000)"
fill="#000000" stroke="none">
<path d="M7579 15896 c-2 -2 -40 -7 -84 -10 -82 -7 -124 -12 -185 -22 -19 -3
-51 -8 -70 -10 -19 -2 -46 -6 -60 -9 -14 -3 -52 -7 -85 -10 -79 -7 -349 -56
-447 -81 -10 -2 -26 -6 -35 -8 -238 -55 -438 -113 -663 -193 -258 -91 -365
-136 -600 -252 -385 -189 -527 -272 -806 -467 -23 -16 -70 -49 -105 -73 -64
-44 -215 -160 -241 -183 -7 -7 -53 -47 -103 -88 -49 -41 -97 -82 -105 -90 -9
-8 -47 -42 -85 -75 -121 -103 -406 -395 -510 -521 -179 -216 -259 -315 -275
-339 -8 -13 -74 -110 -146 -216 -112 -167 -264 -410 -264 -424 0 -2 -14 -28
-31 -57 -32 -55 -204 -394 -233 -460 -37 -86 -46 -108 -89 -213 -140 -344
-312 -979 -343 -1265 -3 -30 -8 -58 -10 -61 -1 -3 -6 -30 -9 -60 -3 -30 -8
-61 -10 -69 -5 -20 -15 -117 -22 -225 -3 -49 -8 -2407 -10 -5239 -3 -3772 -1
-5152 7 -5160 8 -8 1620 -12 6001 -14 l5989 -4 -4 5235 c-2 2880 -6 5240 -9
5244 -3 5 -8 27 -11 49 -8 64 -25 173 -40 249 -2 11 -7 40 -11 65 -3 25 -13
77 -20 115 -8 39 -16 83 -19 99 -3 16 -10 52 -16 80 -6 28 -12 60 -14 71 -32
166 -140 536 -216 741 -177 476 -493 1070 -775 1454 -207 283 -375 479 -616
720 -182 182 -245 239 -444 405 -274 229 -486 375 -848 588 -145 85 -507 267
-532 267 -2 0 -28 11 -57 24 -169 75 -448 183 -496 192 -20 4 -86 25 -147 46
-89 32 -243 76 -325 93 -164 35 -188 39 -315 59 -101 17 -155 24 -211 31 -22
3 -73 9 -114 15 -142 18 -176 21 -365 36 -44 3 -96 8 -115 10 -42 6 -646 15
-651 10z m586 -420 c83 -4 170 -9 195 -11 25 -2 85 -7 133 -10 48 -4 96 -8
105 -10 9 -1 46 -6 82 -9 36 -4 88 -11 115 -16 28 -5 64 -11 80 -14 306 -49
703 -154 975 -258 369 -140 611 -253 865 -403 104 -62 259 -158 265 -164 3 -3
16 -12 30 -20 52 -28 335 -228 419 -296 157 -125 486 -438 652 -620 367 -403
641 -804 871 -1275 123 -251 154 -322 232 -529 148 -393 233 -727 301 -1181
23 -156 24 -180 40 -600 7 -194 18 -897 18 -1175 0 -370 -3 -469 -14 -486 -7
-12 -31 2 -199 121 -68 48 -378 263 -520 362 -58 39 -179 124 -270 188 -91 64
-235 164 -320 222 -168 113 -285 194 -733 507 -160 112 -355 247 -432 299 -77
53 -166 114 -197 136 -31 23 -123 86 -203 141 -80 55 -192 133 -248 173 -103
74 -154 109 -397 275 -74 51 -216 149 -315 218 -99 69 -216 150 -260 180 -226
156 -980 679 -1042 723 -40 28 -109 76 -153 106 -44 30 -116 80 -159 110 -43
30 -123 86 -177 123 -530 366 -956 661 -1034 716 -52 37 -203 142 -335 233
-256 176 -562 388 -660 457 -33 23 -103 71 -155 107 -52 36 -129 89 -170 118
-41 29 -118 81 -170 117 -52 35 -97 66 -100 69 -3 3 -41 30 -85 60 -44 30
-105 71 -135 93 -30 21 -98 67 -151 103 -53 36 -111 78 -129 93 l-32 26 93 67
c52 36 140 92 197 124 57 33 144 83 195 112 143 81 456 236 549 271 45 18 92
36 103 41 158 75 705 237 975 288 163 31 185 35 190 37 3 1 39 5 80 9 41 5 82
10 90 11 34 6 238 26 420 40 47 4 86 8 87 9 5 4 280 -1 438 -8z m-3632 -1378
c138 -98 421 -294 662 -459 44 -29 84 -58 90 -62 22 -17 324 -228 490 -342 97
-66 318 -219 493 -340 174 -122 386 -268 469 -325 193 -133 750 -518 876 -607
53 -37 517 -358 790 -546 81 -56 196 -136 255 -177 59 -42 152 -107 207 -145
55 -38 174 -121 265 -184 91 -63 293 -203 450 -311 157 -108 314 -217 350
-242 36 -24 126 -87 200 -138 74 -51 209 -145 299 -208 129 -90 1169 -811
1617 -1121 94 -66 380 -263 744 -516 143 -99 315 -218 382 -264 99 -68 349
-244 367 -258 2 -1 4 -1673 4 -3715 l0 -3713 -1099 -1 -1099 -1 -75 71 c-72
68 -264 269 -316 331 -51 61 -154 223 -213 336 l-60 117 82 7 c104 9 130 11
192 20 81 11 253 53 350 86 104 35 293 116 316 136 8 7 20 13 26 13 17 0 254
149 312 196 9 7 52 41 96 75 107 84 303 281 396 399 159 200 280 404 368 620
38 92 86 235 95 282 2 13 10 46 16 73 16 68 17 74 24 125 3 25 8 68 12 95 12
94 5 400 -11 425 -2 3 -6 29 -10 58 -4 30 -13 78 -21 108 -8 30 -14 57 -14 59
0 3 -3 4 -8 3 -4 -1 -32 4 -62 10 -149 34 -502 34 -745 2 -289 -39 -743 -251
-1030 -480 -76 -61 -276 -255 -340 -330 -65 -76 -177 -231 -250 -345 -42 -66
-82 -119 -88 -117 -6 2 -57 48 -112 102 -55 54 -118 113 -140 131 -22 19 -42
36 -45 39 -46 47 -238 168 -370 233 -165 82 -300 123 -478 144 -115 14 -378 6
-457 -13 -11 -3 -40 -6 -65 -8 -37 -2 -47 -8 -58 -29 -38 -77 -59 -369 -38
-547 56 -495 393 -1007 860 -1305 80 -51 236 -128 326 -160 74 -26 271 -78
340 -90 58 -9 81 -35 130 -146 127 -285 208 -423 372 -631 37 -47 68 -88 68
-90 0 -4 -1896 -4 -1912 0 -3 1 -81 179 -173 395 -93 215 -176 410 -186 432
-93 212 -303 699 -407 945 -72 168 -203 474 -292 680 -89 206 -187 434 -217
505 -30 72 -65 153 -78 180 -12 28 -39 91 -60 140 -20 50 -43 105 -51 122 -8
18 -20 48 -28 65 -52 122 -82 190 -103 238 -14 30 -119 273 -233 540 -189 441
-248 578 -300 695 -33 75 -258 600 -340 795 -84 198 -101 238 -139 323 -12 27
-63 144 -112 260 -50 117 -104 240 -120 275 -16 35 -29 66 -29 68 0 3 -9 24
-20 48 -10 24 -51 119 -91 212 -39 93 -84 197 -100 232 -16 35 -29 65 -29 67
0 2 -14 34 -31 72 -16 37 -34 77 -39 88 -4 11 -15 36 -23 55 -9 19 -49 114
-90 210 -41 96 -82 191 -90 210 -36 81 -55 127 -194 448 -80 185 -172 400
-204 477 -33 77 -66 154 -74 170 -7 17 -167 388 -355 825 -188 437 -377 876
-420 975 -43 99 -108 252 -145 340 -37 88 -82 194 -100 235 -18 41 -63 145
-100 230 -37 85 -78 178 -90 205 -13 28 -46 106 -75 175 -67 162 -165 390
-197 460 -46 101 -103 248 -103 265 0 14 58 105 80 125 3 3 30 39 61 80 31 41
65 85 75 97 11 12 37 43 59 70 72 87 137 155 390 409 254 256 321 314 360 314
12 0 74 -37 138 -82z m-1434 -1495 c10 -21 51 -114 91 -208 39 -93 83 -194 96
-223 13 -29 24 -55 24 -57 0 -4 140 -324 170 -390 5 -11 57 -132 116 -270 58
-137 114 -268 124 -290 9 -22 37 -85 60 -140 23 -55 48 -113 55 -130 99 -227
255 -588 255 -591 0 -2 11 -27 24 -56 13 -29 77 -177 141 -328 102 -241 181
-421 375 -865 26 -60 69 -161 95 -224 25 -62 59 -141 74 -175 15 -33 52 -117
81 -186 61 -146 162 -379 230 -535 43 -98 70 -160 75 -175 2 -6 31 -72 50
-115 8 -16 39 -91 70 -165 51 -120 132 -309 171 -395 7 -16 61 -142 120 -280
58 -137 114 -268 124 -290 10 -22 37 -85 60 -140 24 -55 97 -224 162 -375 66
-151 124 -285 129 -298 5 -13 20 -48 34 -78 14 -30 25 -57 25 -59 0 -2 11 -28
24 -57 13 -29 29 -66 36 -83 24 -59 261 -611 275 -640 20 -45 253 -587 372
-865 57 -135 112 -263 123 -285 10 -22 33 -74 50 -115 18 -41 40 -93 50 -115
17 -39 99 -229 125 -290 7 -16 110 -255 228 -530 118 -275 220 -513 227 -530
21 -50 28 -66 71 -165 23 -52 84 -194 136 -315 52 -121 103 -238 113 -260 10
-22 34 -80 54 -130 21 -49 45 -108 55 -130 61 -133 261 -606 261 -618 0 -12
-450 -14 -2995 -14 l-2995 0 5 3901 c2 2146 4 4367 5 4936 1 569 5 1055 9
1080 5 25 12 68 15 95 60 506 177 1006 329 1402 99 256 180 432 362 784 5 10
11 19 12 19 2 0 11 -17 22 -37z m9445 -8963 c-1 -69 -14 -255 -19 -280 -3 -14
-8 -41 -11 -60 -3 -19 -16 -75 -30 -123 -110 -391 -386 -797 -724 -1065 -152
-120 -247 -175 -496 -286 -77 -34 -246 -79 -345 -91 -24 -3 -71 -9 -103 -14
-33 -4 -94 -9 -136 -10 -61 -2 -79 1 -90 14 -38 46 -1 365 66 575 151 470 598
973 1080 1214 135 67 261 111 354 123 19 2 51 9 70 14 19 5 67 12 105 15 39 4
71 7 72 8 1 1 48 1 105 1 l103 0 -1 -35z m-3423 -600 c206 -38 301 -67 437
-132 243 -117 457 -312 607 -553 l45 -72 -20 -85 c-11 -46 -22 -115 -25 -154
-2 -38 -7 -109 -10 -159 -3 -49 -7 -99 -10 -110 -2 -11 -4 -27 -4 -36 -1 -14
-21 -10 -128 28 -174 60 -346 157 -464 259 -87 76 -194 188 -240 251 -23 32
-59 81 -80 108 -21 28 -50 77 -64 110 -23 52 -74 193 -79 220 -1 6 -5 19 -9
30 -3 11 -8 31 -11 45 -3 14 -7 36 -10 49 -5 21 -8 51 -21 174 -4 42 -2 43 86
27z"/>
</g>
</svg>
